<?xml version="1.0" standalone="no"?>
<!DOCTYPE svg PUBLIC "-//W3C//DTD SVG 20010904//EN"
 "http://www.w3.org/TR/2001/REC-SVG-20010904/DTD/svg10.dtd">
<svg version="1.0" xmlns="http://www.w3.org/2000/svg"
 width="512.000000pt" height="512.000000pt" viewBox="0 0 512.000000 512.000000"
 preserveAspectRatio="xMidYMid meet">
<metadata>
Created by potrace 1.14, written by Peter Selinger 2001-2017
</metadata>
<g transform="translate(0.000000,512.000000) scale(0.100000,-0.100000)"
fill="#000000" stroke="none">
<path d="M1370 3994 c-25 -9 -80 -17 -122 -17 -56 -2 -81 -6 -90 -18 -7 -8
-31 -27 -53 -42 -62 -41 -135 -175 -135 -247 0 -22 -6 -30 -31 -39 -43 -15
-42 -16 -34 26 10 55 43 137 71 178 14 21 23 40 20 43 -6 6 -81 -67 -87 -85
-2 -6 -51 -37 -109 -67 -58 -30 -261 -138 -452 -238 l-347 -183 0 -112 c-1
-90 2 -113 13 -113 8 0 49 7 92 15 139 26 424 64 588 79 87 8 163 19 169 25
14 14 87 14 87 1 0 -5 -7 -7 -15 -4 -19 8 -19 1 1 -39 36 -71 88 -107 154
-107 59 0 100 21 147 74 35 40 45 46 79 45 22 0 48 -4 59 -8 18 -7 14 -14 -39
-66 -65 -63 -142 -105 -195 -105 -42 0 -33 -11 21 -27 108 -32 255 44 353 182
26 36 48 65 49 65 6 0 -12 -86 -22 -110 -34 -83 -145 -159 -244 -168 -56 -5
-59 -6 -37 -18 34 -19 69 -18 69 2 0 9 6 14 13 11 6 -2 12 -16 12 -30 -1 -20
4 -27 18 -27 24 0 56 -17 88 -46 24 -23 29 -24 90 -15 76 11 119 27 176 70 42
30 93 112 93 148 0 14 2 15 9 4 5 -8 7 -21 3 -29 -3 -10 -1 -13 6 -8 15 9 16
-13 2 -50 -6 -15 -7 -30 -3 -33 16 -12 13 -31 -5 -31 -10 0 -27 -8 -38 -18
-10 -10 -28 -24 -39 -31 -18 -11 -18 -12 -1 -7 13 4 28 -3 48 -25 l30 -31 75
17 c42 10 99 18 129 18 30 0 54 2 54 4 0 2 -10 23 -21 46 -17 33 -23 66 -27
148 -5 117 -11 97 77 234 37 57 97 111 158 141 29 14 50 30 47 35 -3 5 -5 27
-6 48 0 25 -6 42 -15 45 -12 5 -13 26 -7 125 5 92 4 120 -6 126 -8 5 -44 9
-82 10 -37 2 -75 8 -83 15 -17 14 -90 6 -112 -12 -8 -6 -13 -34 -13 -72 l0
-61 -67 0 c-108 -1 -117 -5 -124 -56 -9 -61 -31 -109 -68 -152 -51 -58 -95
-80 -155 -78 -100 2 -188 50 -254 138 -95 125 -112 238 -54 356 62 126 169
174 293 132 94 -32 177 -117 225 -230 18 -44 23 -51 18 -25 -18 95 -109 212
-201 256 -69 34 -176 42 -243 18z m-142 -299 l0 -40 -13 30 c-7 17 -11 44 -7
60 4 26 6 27 13 10 4 -11 8 -38 7 -60z m986 -29 c-4 -25 -10 -46 -14 -46 -14
0 -18 52 -8 88 14 51 30 19 22 -42z m-124 19 c0 -32 -5 -47 -15 -52 -26 -9
-31 6 -12 38 9 17 17 37 17 45 0 8 2 14 5 14 3 0 5 -20 5 -45z m71 -48 c-13
-13 -15 1 -4 30 7 17 8 17 11 -1 2 -10 -1 -23 -7 -29z m-211 -52 c-14 -16 -40
-20 -40 -6 0 13 44 40 48 30 2 -6 -2 -16 -8 -24z m-50 5 c0 -5 -4 -10 -10 -10
-5 0 -10 5 -10 10 0 6 5 10 10 10 6 0 10 -4 10 -10z m-1083 -65 c-3 -36 0 -46
15 -51 47 -14 5 -33 -219 -97 -131 -37 -242 -67 -248 -67 -5 0 -52 -14 -103
-31 -52 -16 -99 -28 -105 -26 -12 5 134 77 326 163 59 26 107 49 107 51 0 8
-47 -10 -199 -78 -85 -38 -156 -67 -159 -65 -2 3 11 11 29 19 19 8 90 42 159
74 69 33 170 77 225 97 55 21 109 41 120 46 46 20 56 13 52 -35z m78 21 c-3
-6 -8 -19 -11 -29 -9 -24 -40 -17 -36 8 6 37 11 43 32 38 11 -3 18 -11 15 -17z
m7 -185 c-8 -4 -13 -12 -12 -17 0 -5 -8 -10 -20 -12 -12 -2 -20 2 -20 11 0 20
10 27 39 27 18 0 22 -3 13 -9z m158 -11 c0 -5 -9 -10 -20 -10 -11 0 -20 5 -20
10 0 6 9 10 20 10 11 0 20 -4 20 -10z m70 0 c0 -5 -5 -10 -11 -10 -5 0 -7 5
-4 10 3 6 8 10 11 10 2 0 4 -4 4 -10z m-240 -45 c0 -8 -4 -15 -10 -15 -5 0
-10 7 -10 15 0 8 5 15 10 15 6 0 10 -7 10 -15z m-310 -25 c0 -17 -6 -32 -12
-34 -7 -2 -74 -11 -148 -21 -74 -9 -148 -19 -165 -21 -16 -3 4 7 45 21 72 26
257 82 273 84 4 1 7 -13 7 -29z m-410 10 c-8 -5 -19 -10 -25 -10 -5 0 -3 5 5
10 8 5 20 10 25 10 6 0 3 -5 -5 -10z m723 -27 c-7 -2 -19 -2 -25 0 -7 3 -2 5
12 5 14 0 19 -2 13 -5z m264 -44 c-27 -16 -127 -24 -127 -11 0 10 36 16 115
20 25 1 27 0 12 -9z m710 -131 c-3 -7 -5 -2 -5 12 0 14 2 19 5 13 2 -7 2 -19
0 -25z m-7 -55 c0 -19 -3 -24 -10 -17 -6 6 -8 18 -4 27 9 24 14 21 14 -10z
m60 -117 c0 -11 -19 -15 -25 -6 -3 5 1 10 9 10 9 0 16 -2 16 -4z m-10 -66 c0
-5 -4 -10 -10 -10 -5 0 -10 5 -10 10 0 6 5 10 10 10 6 0 10 -4 10 -10z"/>
<path d="M1433 3944 c-91 -33 -138 -111 -138 -229 0 -71 4 -88 33 -147 67
-137 213 -211 325 -164 45 19 92 75 112 136 71 214 -142 473 -332 404z"/>
<path d="M3213 3563 c-208 -3 -223 -5 -233 -23 -7 -13 -54 -33 -149 -64 -77
-26 -149 -46 -159 -46 -32 0 -149 -39 -161 -53 -9 -11 -1 -11 45 0 49 13 65
13 125 -1 78 -18 174 -63 205 -97 12 -13 34 -46 49 -74 l27 -50 -31 35 c-17
19 -31 40 -31 45 0 6 -5 3 -10 -5 -8 -13 -10 -12 -10 3 0 10 -5 15 -10 12 -13
-8 -3 -50 25 -102 13 -23 26 -56 30 -73 4 -16 13 -30 21 -30 8 0 14 -3 14 -7
6 -84 7 -153 3 -135 -9 42 -33 6 -33 -49 0 -41 3 -49 18 -49 20 0 42 -37 42
-69 0 -10 7 -34 15 -54 8 -19 12 -36 10 -39 -2 -2 2 -21 9 -42 l13 -38 58 58
58 59 -6 -63 c-4 -35 -9 -67 -11 -70 -2 -4 -34 -5 -72 -4 -37 2 -62 7 -56 11
7 4 8 12 2 21 -9 13 -10 13 -10 0 0 -13 -1 -13 -10 0 -6 9 -10 10 -10 3 0 -8
-25 -12 -82 -11 -109 0 -110 0 -103 -13 5 -7 -11 -8 -52 -4 -71 8 -110 -5
-123 -42 -6 -16 -14 -35 -19 -43 -4 -8 -5 -39 -1 -68 l7 -54 -29 4 c-28 5 -41
-15 -15 -25 7 -3 6 -6 -5 -6 -12 -1 -18 9 -21 37 l-4 37 -1 -42 c-1 -24 -6
-43 -12 -43 -5 0 -7 7 -3 16 5 15 1 16 -33 10 -84 -15 -101 -25 -123 -71 -12
-25 -21 -47 -21 -50 0 -3 28 -5 62 -3 l63 3 24 44 c18 33 26 40 30 28 4 -12
10 -14 21 -7 8 5 28 10 43 10 l28 0 -52 -60 c-50 -58 -58 -79 -23 -66 10 4 14
12 10 22 -4 11 1 18 14 21 11 3 20 11 20 18 0 15 58 60 67 52 3 -3 -10 -27
-28 -54 -58 -84 -57 -83 -129 -83 -84 0 -105 -14 -127 -88 -9 -31 -16 -61 -15
-66 5 -17 -10 -46 -24 -46 -20 0 -44 -60 -44 -107 1 -60 17 -23 34 76 4 20 26
26 26 7 0 -38 -36 -118 -89 -196 -61 -91 -83 -127 -56 -95 16 20 16 20 13 0
-2 -10 -10 -26 -18 -35 -8 -8 -23 -27 -33 -40 -14 -20 -16 -21 -7 -3 17 37 11
38 -15 3 -29 -39 -28 -53 3 -55 33 -2 38 -13 11 -24 -13 -5 -19 -10 -12 -10 7
-1 10 -8 7 -16 -5 -13 -9 -12 -24 5 -15 18 -19 18 -30 5 -15 -18 -5 -54 11
-38 7 7 18 4 35 -12 34 -31 30 -36 -16 -18 -22 9 -40 20 -40 25 0 4 -9 8 -21
8 -16 0 -20 -5 -17 -24 1 -13 -3 -36 -11 -52 -8 -16 -21 -45 -30 -63 -9 -19
-23 -43 -31 -53 -8 -10 -58 -82 -110 -161 -73 -109 -100 -141 -115 -140 -156
17 -142 18 -159 -15 -9 -17 -16 -45 -16 -62 0 -30 1 -31 38 -25 27 5 33 4 22
-4 -8 -6 -25 -11 -36 -11 -12 0 -33 -9 -47 -20 -14 -11 -29 -20 -35 -20 -5 0
-22 -11 -38 -25 -16 -14 -32 -25 -36 -25 -5 0 -7 -6 -5 -12 1 -7 -6 -12 -15
-12 -10 1 -14 -4 -11 -12 3 -8 9 -14 15 -14 5 0 6 -4 3 -10 -8 -14 -26 -13
-22 1 1 6 -4 14 -12 17 -8 2 -11 0 -7 -6 3 -6 2 -13 -4 -17 -5 -3 -10 -1 -10
5 0 7 -5 6 -14 -2 -10 -9 -11 -15 -2 -20 7 -5 4 -8 -7 -8 -11 0 -30 -9 -44
-20 -19 -15 -21 -20 -9 -20 9 0 16 -5 16 -11 0 -5 -4 -7 -10 -4 -5 3 -10 2
-10 -4 0 -5 -18 -22 -40 -38 -22 -15 -40 -32 -40 -36 0 -5 27 13 60 39 36 28
56 50 50 54 -7 4 4 17 27 31 55 34 61 35 33 3 -21 -23 -16 -21 28 12 29 21 76
59 105 83 74 63 70 33 -5 -37 -90 -85 -260 -222 -275 -222 -7 0 -22 -6 -33
-12 -16 -10 -25 -9 -49 5 -16 9 -31 17 -34 17 -3 0 1 -19 8 -42 9 -33 19 -44
41 -51 41 -13 503 -20 594 -9 75 9 75 9 -53 11 -98 1 -128 4 -124 14 2 6 11
11 21 9 9 -2 16 4 16 13 0 8 23 29 50 46 28 17 50 36 50 42 0 7 16 24 35 40
43 35 61 89 41 129 -12 24 -12 28 -1 28 21 0 35 33 35 80 0 38 1 40 25 34 21
-5 25 -3 25 18 0 13 29 69 65 124 36 54 72 120 80 146 16 55 134 228 153 225
7 -1 40 42 75 95 34 53 92 144 129 201 55 87 71 105 97 110 45 9 91 77 91 134
0 39 2 43 24 43 14 0 27 4 30 8 3 5 30 15 61 22 55 13 95 45 95 75 0 6 9 20
20 30 11 10 17 21 15 25 -3 4 5 10 16 13 13 4 19 10 14 19 -4 7 3 2 14 -12 26
-31 27 -75 3 -122 -12 -22 -14 -34 -7 -32 7 3 17 15 23 28 9 20 20 24 79 29
37 4 88 9 113 13 l46 6 2 -33 c1 -18 7 -38 13 -45 5 -6 12 -23 14 -35 13 -66
19 -88 40 -129 13 -25 35 -57 50 -72 32 -32 106 -63 135 -55 16 4 25 -3 40
-32 24 -48 37 -59 80 -63 32 -3 44 -16 166 -177 l131 -174 5 -143 c6 -160 14
-185 74 -210 19 -8 34 -18 34 -22 0 -5 -50 -53 -111 -108 -61 -54 -128 -117
-148 -140 -20 -22 -44 -43 -53 -47 -14 -5 -18 -18 -18 -51 0 -40 3 -46 25 -52
46 -11 632 11 647 24 4 4 -42 6 -101 4 -60 -2 -124 1 -142 6 -33 10 -33 10 -6
11 49 2 182 156 175 203 -6 42 -32 31 -87 -37 -29 -36 -58 -65 -64 -65 -5 0
-4 8 4 18 8 9 36 42 62 73 41 50 47 63 53 121 6 58 9 66 34 75 25 9 27 15 33
87 6 82 -7 144 -45 221 -29 58 -57 84 -102 96 -55 14 -67 27 -120 122 -26 45
-64 105 -86 132 -22 28 -49 67 -60 88 l-20 37 23 0 c27 0 47 15 70 52 21 33
22 67 3 94 -13 18 -28 96 -43 215 -4 39 -1 52 22 87 17 26 25 48 20 60 -3 11
-2 23 3 26 9 5 313 46 347 46 15 0 24 -10 32 -37 19 -66 89 -257 106 -290 14
-26 29 -35 99 -58 46 -15 89 -32 96 -38 8 -6 12 -6 12 2 0 6 17 11 40 11 43 0
45 -4 40 -72 -1 -15 11 -50 25 -77 30 -53 54 -66 108 -56 32 6 35 3 132 -126
107 -142 175 -246 175 -268 0 -8 6 -11 16 -7 9 3 18 6 20 6 2 0 4 85 4 189 l0
190 -61 77 c-47 59 -72 81 -109 97 -45 19 -49 23 -53 61 -2 26 1 47 10 57 19
23 16 83 -6 110 -17 21 -17 27 -5 62 8 22 14 49 13 61 -1 11 -5 3 -10 -18 -12
-50 -34 -75 -60 -69 -11 3 -41 -4 -66 -17 -44 -22 -45 -22 -84 -4 -54 24 -97
80 -103 135 -5 35 -4 39 4 19 8 -21 9 -19 5 15 -6 51 26 120 66 141 16 8 29
19 29 24 0 6 9 10 20 10 11 0 20 5 20 10 0 6 17 10 38 10 l37 1 -35 17 c-31
15 -35 22 -38 60 -2 23 1 42 6 42 17 0 32 49 22 74 -9 26 -56 56 -86 56 -12 0
-15 6 -10 23 38 132 47 197 44 292 -5 121 -29 192 -88 253 -85 88 -172 105
-272 52 l-57 -30 -37 25 c-20 14 -43 25 -50 25 -7 0 -41 30 -75 68 -121 128
-189 189 -247 218 -57 29 -57 29 -252 30 -107 0 -295 -1 -417 -3z m522 -40
c-4 -10 -10 -30 -13 -46 -2 -15 -8 -29 -12 -32 -5 -3 -36 2 -70 11 -34 8 -68
13 -77 10 -8 -3 -21 0 -29 8 -13 14 -77 26 -214 43 l-65 8 90 6 c50 3 159 6
244 7 142 2 153 1 146 -15z m159 -30 c48 -30 180 -161 151 -149 -28 11 -244
73 -279 81 -18 4 -25 10 -19 16 9 9 112 -13 203 -45 24 -8 46 -13 49 -11 7 8
-68 36 -156 58 -87 23 -97 33 -73 77 9 16 15 17 47 8 20 -5 55 -21 77 -35z
m-579 -48 c26 0 33 -55 10 -78 -22 -23 -59 -7 -63 26 -4 29 17 75 27 61 3 -5
15 -9 26 -9z m-280 -85 c-3 -5 1 -10 9 -10 15 0 46 -58 46 -87 0 -8 -13 -28
-30 -44 -23 -24 -37 -30 -62 -27 -28 3 -34 7 -36 32 -3 28 -3 28 19 12 30 -21
41 -20 67 4 26 25 28 57 5 82 -23 26 -58 22 -82 -8 -16 -20 -21 -23 -21 -10 0
22 48 66 72 66 11 0 16 -4 13 -10z m837 -45 c88 -19 111 -25 105 -31 -5 -5
-207 33 -215 41 -10 9 36 5 110 -10z m-192 -6 c0 -14 -29 -17 -34 -4 -3 9 2
13 15 12 10 -1 19 -4 19 -8z m255 -38 c42 -10 82 -24 88 -31 9 -10 9 -11 -2
-5 -7 4 -31 9 -53 10 -63 4 -218 38 -218 48 0 12 85 1 185 -22z m95 -1 c8 -5
11 -10 5 -10 -5 0 -17 5 -25 10 -8 5 -10 10 -5 10 6 0 17 -5 25 -10z m498 -59
c114 -59 179 -222 155 -390 -13 -84 -42 -196 -49 -188 -3 2 0 24 5 48 35 149
-9 340 -101 445 -35 40 -99 84 -122 84 -8 0 -18 5 -21 10 -11 18 94 11 133 -9z
m-66 -56 c46 -31 113 -132 133 -198 20 -66 29 -201 18 -252 l-9 -40 -54 3
c-30 2 -69 -1 -87 -7 l-31 -9 -7 46 c-4 25 -13 62 -21 82 -7 19 -23 74 -34
123 -11 48 -27 104 -35 123 -21 51 -19 65 15 112 35 49 59 53 112 17z m-957
-5 c-3 -5 -13 -10 -21 -10 -8 0 -14 5 -14 10 0 6 9 10 21 10 11 0 17 -4 14
-10z m-71 -46 c20 -8 21 -24 2 -24 -8 0 -24 -12 -35 -26 -26 -32 -27 -17 -3
25 9 17 18 31 19 31 1 0 8 -3 17 -6z m957 -461 c-18 -39 -21 -25 -13 57 l6 75
10 -53 c6 -37 5 -60 -3 -79z m-1 -147 c0 -7 -6 -18 -12 -24 -15 -11 -170 -34
-178 -26 -3 3 10 19 28 35 29 26 40 29 97 29 49 0 65 -3 65 -14z m-1664 -15
c-3 -5 -15 -7 -26 -4 -28 7 -25 13 6 13 14 0 23 -4 20 -9z m411 -69 c25 -35
34 -42 57 -42 16 0 26 -7 30 -22 11 -42 7 -60 -11 -54 -10 2 -62 7 -116 11
-95 7 -98 8 -79 25 10 10 25 39 32 65 13 45 14 47 44 41 17 -4 36 -14 43 -24z
m-477 -24 c0 -18 -2 -20 -9 -8 -6 8 -7 18 -5 22 9 14 14 9 14 -14z m57 8 c0
-8 -6 -12 -14 -9 -7 3 -10 9 -7 14 8 14 21 11 21 -5z m1443 -22 c0 -17 -22
-14 -28 4 -2 7 3 12 12 12 9 0 16 -7 16 -16z m-740 -10 c0 -2 -9 -4 -20 -4
-11 0 -20 4 -20 9 0 5 9 7 20 4 11 -3 20 -7 20 -9z m-100 -7 c0 -22 -31 -57
-51 -57 -14 0 -19 7 -19 29 0 25 5 30 28 34 15 2 30 5 35 6 4 0 7 -5 7 -12z
m80 -17 c12 -8 9 -10 -12 -10 -16 0 -28 5 -28 10 0 13 20 13 40 0z m86 -5 c-8
-8 -17 -15 -20 -15 -3 0 -3 7 0 15 4 8 13 15 21 15 12 0 12 -2 -1 -15z m728
-14 c10 -16 -24 -21 -137 -21 -102 1 -110 2 -87 15 28 16 215 21 224 6z m-834
-16 c-7 -8 -18 -15 -24 -15 -6 0 -2 7 8 15 25 19 32 19 16 0z m-267 -96 c37
-7 67 -17 67 -20 0 -14 -68 -38 -161 -58 -53 -11 -102 -23 -111 -26 -9 -4 -19
4 -27 21 -14 31 -17 28 39 45 30 9 48 22 55 37 11 26 15 26 138 1z m723 2 c-3
-4 -25 -11 -48 -15 -24 -4 -58 -9 -75 -12 -26 -5 -33 -3 -33 9 0 12 13 17 48
20 94 7 113 7 108 -2z m-1375 -116 c0 -5 -5 -11 -12 -14 -6 -2 -9 1 -5 7 3 6
0 13 -6 16 -7 3 -5 5 5 3 10 -1 18 -6 18 -12z m239 -25 c0 -5 -2 -10 -4 -10
-3 0 -8 5 -11 10 -3 6 -1 10 4 10 6 0 11 -4 11 -10z m770 -20 c0 -5 -7 -10
-16 -10 -8 0 -12 5 -9 10 3 6 10 10 16 10 5 0 9 -4 9 -10z m205 -16 c96 -45
92 -226 -6 -292 -30 -20 -44 -23 -112 -20 -72 3 -91 -2 -67 -17 12 -8 13 -25
1 -44 -8 -12 -13 -12 -34 2 -19 12 -29 34 -42 90 -25 106 -16 169 33 226 20
23 44 44 52 45 8 2 22 6 30 9 8 4 33 8 55 10 22 2 44 4 48 5 5 1 24 -5 42 -14z
m893 -19 c12 5 13 3 2 -10 -12 -15 -15 -14 -26 7 -8 13 -13 28 -13 33 0 6 5 0
11 -13 7 -14 17 -21 26 -17z m73 -12 c13 -16 12 -17 -3 -4 -17 13 -22 21 -14
21 2 0 10 -8 17 -17z m-2192 -9 c-7 -8 -21 -13 -31 -11 -10 3 -21 1 -24 -4 -7
-12 -34 -12 -34 0 0 8 57 28 89 30 11 1 11 -2 0 -15z m-32 -79 c-28 -25 -57
-33 -57 -17 0 9 58 40 75 41 6 0 -3 -11 -18 -24z m2168 -36 c-5 -15 -4 -19 4
-15 6 4 11 0 11 -8 0 -21 -16 -21 -24 0 -9 24 -7 44 5 44 6 0 8 -9 4 -21z
m349 -321 c-6 -19 -5 -21 8 -11 11 10 18 8 31 -7 19 -23 21 -30 8 -30 -5 0
-13 10 -16 21 -6 17 -9 19 -16 8 -5 -10 2 -24 23 -46 31 -32 53 -38 28 -8 -7
8 -8 15 -4 15 14 0 33 -36 30 -56 -4 -29 -10 -24 -100 87 -9 11 -10 20 -2 32
15 23 19 21 10 -5z m-1274 -107 c6 8 13 1 24 -24 8 -20 18 -37 21 -37 3 0 1 9
-5 21 -20 36 -5 30 43 -19 l48 -48 -24 -11 c-21 -10 -27 -7 -58 34 -19 24 -42
52 -51 61 -10 9 -18 21 -17 27 0 5 3 4 6 -4 4 -11 7 -11 13 0z m1409 -125 c-3
-3 -11 5 -18 17 -13 21 -12 21 5 5 10 -10 16 -20 13 -22z m-1086 -87 c16 -26
1 -49 -33 -49 -38 0 -49 24 -24 50 22 22 43 22 57 -1z m-97 -16 c-7 -7 -26 7
-26 19 0 6 6 6 15 -2 9 -7 13 -15 11 -17z m-1881 -23 c3 -5 -1 -10 -9 -10 -9
0 -16 5 -16 10 0 6 4 10 9 10 6 0 13 -4 16 -10z m1885 -31 c0 -5 3 -8 8 -5 4
2 16 -2 27 -10 10 -8 14 -14 7 -14 -6 0 -9 -7 -6 -15 4 -8 10 -13 14 -10 4 2
18 -16 31 -42 13 -26 32 -55 41 -65 10 -10 15 -25 11 -34 -4 -12 -3 -15 5 -10
17 10 37 -43 22 -58 -8 -8 -9 -6 -5 7 4 9 2 17 -4 17 -6 0 -8 6 -5 14 4 10 -1
14 -19 12 -19 -2 -24 1 -19 12 3 9 1 13 -5 9 -5 -4 -15 5 -22 20 -11 24 -11
25 5 12 16 -13 17 -12 10 6 -5 11 -11 29 -14 40 -5 18 -6 18 -12 -5 -5 -23 -7
-22 -29 20 -13 25 -32 60 -43 78 -11 17 -15 32 -9 32 6 0 11 -5 11 -11z
m-2245 -288 c-3 -6 -11 -11 -17 -11 -6 0 -6 6 2 15 14 17 26 13 15 -4z m75
-21 c-8 -5 -19 -10 -25 -10 -5 0 -3 5 5 10 8 5 20 10 25 10 6 0 3 -5 -5 -10z
m2270 -20 c0 -5 -7 -10 -16 -10 -8 0 -12 5 -9 10 3 6 10 10 16 10 5 0 9 -4 9
-10z m-2370 -64 c0 -11 -19 -15 -25 -6 -3 5 1 10 9 10 9 0 16 -2 16 -4z m-107
-45 c-4 -3 -25 -22 -45 -40 -21 -19 -38 -30 -38 -23 0 7 18 25 40 41 21 15 36
32 32 36 -4 5 -1 5 6 0 8 -4 10 -10 5 -14z m2167 -186 c0 -8 -7 -15 -15 -15
-26 0 -18 20 13 29 1 1 2 -6 2 -14z"/>
<path d="M3291 3414 c0 -11 3 -14 6 -6 3 7 2 16 -1 19 -3 4 -6 -2 -5 -13z"/>
<path d="M3545 1925 c-46 -45 -20 -105 46 -105 26 0 49 31 49 66 0 17 -44 64
-60 64 -6 0 -22 -11 -35 -25z m58 -10 c1 -5 -7 -11 -18 -12 l-20 -2 20 6 20 6
-20 8 c-16 7 -17 8 -2 6 10 -1 19 -6 20 -12z m-17 -41 c-7 -19 4 -17 21 4 13
16 14 16 11 -3 -4 -23 -53 -34 -71 -16 -8 8 -7 11 2 11 7 0 11 6 8 14 -4 10 0
12 14 9 12 -3 18 -11 15 -19z"/>
<path d="M2348 3360 c-81 -24 -156 -96 -201 -190 -27 -57 -31 -76 -31 -155 -1
-168 63 -285 157 -285 66 0 71 7 64 88 l-7 70 32 6 c49 10 68 33 68 82 0 49
-18 72 -62 81 -29 6 -30 7 -25 52 8 78 46 162 92 207 l43 42 -30 6 c-38 8 -66
7 -100 -4z"/>
<path d="M2780 2888 c0 -46 19 -110 31 -103 12 8 12 95 -1 95 -5 0 -10 9 -10
20 0 11 -4 20 -10 20 -5 0 -10 -15 -10 -32z"/>
<path d="M2416 2742 c-3 -6 4 -23 17 -38 15 -17 26 -23 31 -16 3 6 -4 23 -17
38 -15 17 -26 23 -31 16z"/>
<path d="M2556 2702 c-8 -13 23 -74 36 -70 18 6 22 46 8 64 -13 15 -36 19 -44
6z"/>
<path d="M2275 2550 c-16 -25 41 -75 73 -63 19 8 14 51 -7 63 -25 13 -58 13
-66 0z"/>
<path d="M2158 2534 c-4 -3 -51 -5 -107 -5 l-100 1 -14 -48 c-9 -30 -21 -51
-35 -57 -12 -5 -20 -16 -17 -23 3 -8 0 -10 -6 -6 -7 4 -10 1 -7 -7 5 -14 11
-14 72 -2 20 4 27 2 22 -6 -4 -6 -17 -12 -29 -12 -17 -1 -15 -3 8 -9 17 -4 25
-8 18 -9 -15 -1 -108 -121 -94 -121 5 0 26 23 46 50 31 43 55 62 55 45 0 -8
-35 -61 -61 -92 -23 -28 -28 -30 -75 -24 -27 4 -54 6 -61 6 -17 0 -75 -113
-71 -138 2 -16 11 -23 33 -25 51 -5 59 -10 44 -28 -8 -10 -21 -13 -36 -9 -48
12 -118 -72 -126 -151 -6 -55 -22 -139 -32 -169 -6 -17 -5 -17 5 -5 23 29 0
-57 -29 -114 -16 -30 -26 -57 -23 -61 4 -4 -1 -13 -12 -20 -20 -15 -14 -35 12
-35 10 0 13 -3 7 -8 -6 -4 -20 -20 -32 -35 l-22 -29 -7 27 c-4 15 -2 31 5 38
13 13 15 31 2 22 -5 -3 -15 -22 -22 -43 -6 -20 -17 -40 -23 -44 -8 -5 -7 -13
2 -28 9 -15 10 -26 1 -41 -6 -11 -8 -27 -5 -35 3 -8 2 -13 -3 -10 -5 3 -12 -1
-15 -10 -3 -8 -10 -13 -15 -10 -5 3 -12 -1 -15 -10 -4 -10 -2 -13 7 -9 6 4 5
1 -4 -7 -9 -7 -19 -23 -23 -36 -4 -12 -11 -22 -15 -22 -3 0 -20 -26 -36 -57
-17 -32 -34 -61 -40 -65 -7 -5 -7 -8 0 -8 6 0 5 -3 -1 -8 -6 -4 -29 -41 -51
-82 l-40 -75 -64 0 c-57 0 -65 -2 -76 -25 -8 -14 -12 -39 -10 -57 4 -41 -33
-65 -85 -57 -41 7 -62 -12 -27 -24 21 -8 20 -10 -17 -39 -22 -16 -89 -66 -149
-109 -106 -77 -153 -105 -140 -84 3 6 1 10 -4 10 -6 0 -11 -7 -11 -15 0 -8 -9
-15 -20 -15 -11 0 -20 5 -20 10 0 12 -10 13 -28 1 -8 -5 -11 -17 -7 -33 11
-45 58 -52 297 -44 210 6 262 11 253 25 -2 4 2 19 10 34 10 20 11 27 2 27 -7
1 2 7 18 14 17 8 81 58 143 111 95 82 113 101 107 119 -21 70 -18 93 24 179
44 90 81 189 81 216 0 9 24 62 52 118 41 79 58 103 73 103 17 0 30 24 74 138
86 219 126 294 166 314 51 27 82 97 64 146 -8 20 -7 28 5 34 8 5 21 14 28 21
7 7 29 23 49 35 20 12 57 44 83 72 26 27 49 50 51 50 14 0 2 -52 -20 -84 -19
-28 -21 -36 -9 -36 8 0 26 12 41 26 22 22 25 32 21 79 l-4 53 54 5 c75 8 106
37 99 92 -2 26 1 45 9 53 8 7 14 21 14 32 0 18 -61 107 -84 122 -7 5 -7 8 -1
8 23 1 -22 20 -50 21 -23 2 -20 4 15 9 l45 7 -41 1 c-22 1 -43 -1 -46 -4z
m-382 -419 c-10 -26 -26 -16 -26 16 0 28 1 29 16 14 9 -8 13 -22 10 -30z m14
-160 c-7 -8 -17 -15 -23 -15 -5 0 -2 9 8 20 21 23 35 19 15 -5z m-68 -7 c-6
-6 -15 -8 -19 -4 -4 4 -1 11 7 16 19 12 27 3 12 -12z m-50 -39 l-9 -24 -8 24
c-5 16 -3 26 6 32 18 11 22 -1 11 -32z m-32 -164 c0 -8 -4 -15 -10 -15 -5 0
-10 7 -10 15 0 8 5 15 10 15 6 0 10 -7 10 -15z m-50 -289 c0 -3 -4 -8 -10 -11
-5 -3 -10 -1 -10 4 0 6 5 11 10 11 6 0 10 -2 10 -4z m-30 -20 c0 -3 -4 -8 -10
-11 -5 -3 -10 -1 -10 4 0 6 5 11 10 11 6 0 10 -2 10 -4z m-153 -251 c0 -8 -4
-15 -9 -15 -10 0 -11 14 -1 23 9 10 10 9 10 -8z m-221 -375 c0 -25 -29 -23
-34 3 -2 11 3 17 15 17 12 0 19 -7 19 -20z m-96 -25 c-7 -8 -17 -15 -23 -15
-6 0 -2 7 9 15 25 19 30 19 14 0z m128 -128 c2 -10 -2 -24 -8 -32 -10 -13 -16
-12 -42 1 -29 15 -29 16 -12 35 21 24 57 21 62 -4z m-518 -217 c0 -5 -4 -10
-10 -10 -5 0 -10 5 -10 10 0 6 5 10 10 10 6 0 10 -4 10 -10z"/>
<path d="M2250 2515 c0 -8 4 -15 10 -15 5 0 7 7 4 15 -4 8 -8 15 -10 15 -2 0
-4 -7 -4 -15z"/>
<path d="M1861 2313 c-17 -21 -31 -42 -30 -48 0 -5 6 -2 12 9 7 10 23 32 35
47 13 16 21 29 19 29 -3 0 -19 -17 -36 -37z"/>
<path d="M4790 2320 c8 -5 20 -10 25 -10 6 0 3 5 -5 10 -8 5 -19 10 -25 10 -5
0 -3 -5 5 -10z"/>
<path d="M1780 2300 c0 -11 4 -20 10 -20 5 0 14 9 20 20 9 17 8 20 -10 20 -13
0 -20 -7 -20 -20z"/>
<path d="M1805 2240 c-3 -5 -1 -10 4 -10 6 0 11 5 11 10 0 6 -2 10 -4 10 -3 0
-8 -4 -11 -10z"/>
<path d="M4675 2180 c-4 -17 -5 -34 -2 -36 2 -3 7 10 11 27 8 42 0 50 -9 9z"/>
<path d="M4695 2178 c-6 -27 -3 -35 21 -55 32 -26 21 -32 -14 -7 -12 8 -22 11
-22 6 0 -5 12 -15 26 -23 24 -13 28 -12 50 14 27 31 31 69 10 86 -11 9 -13 4
-12 -26 1 -30 -3 -38 -19 -40 -15 -1 -16 -1 -2 3 30 9 19 74 -13 74 -13 0 -21
-10 -25 -32z"/>
<path d="M2010 2019 c0 -5 5 -7 10 -4 6 3 10 8 10 11 0 2 -4 4 -10 4 -5 0 -10
-5 -10 -11z"/>
<path d="M1511 1543 c-10 -26 -10 -27 4 -9 8 11 15 23 15 28 0 15 -7 8 -19
-19z"/>
<path d="M5103 1142 c-10 -6 -10 -12 2 -28 14 -18 14 -18 15 9 0 30 0 30 -17
19z"/>
<path d="M852 682 c-18 -10 -29 -22 -25 -26 4 -4 -1 -6 -12 -4 -12 2 -19 -2
-17 -9 1 -7 -5 -13 -13 -13 -8 0 -23 -8 -33 -17 -10 -10 -24 -19 -30 -20 -12
-3 -112 -63 -112 -67 0 -6 55 8 65 16 5 5 62 43 125 83 63 41 108 75 100 74
-8 0 -30 -8 -48 -17z"/>
<path d="M1150 470 c0 -5 5 -10 11 -10 5 0 7 5 4 10 -3 6 -8 10 -11 10 -2 0
-4 -4 -4 -10z"/>
<path d="M4348 443 c18 -2 45 -2 60 0 15 2 0 4 -33 4 -33 0 -45 -2 -27 -4z"/>
</g>
</svg>
